<svg width="76" height="28" viewBox="0 0 76 28" fill="none" xmlns="http://www.w3.org/2000/svg">
<path d="M19.964 21.544L19.936 14.544C18.536 15.076 16.492 15.636 12.292 16.252C12.152 22.3 10.64 24.82 9.044 25.8L8.316 25.604C8.792 23.588 9.072 19.388 8.96 16.7L7.14 16.896C6.048 17.008 4.76 17.204 3.892 17.568C2.94 17.372 1.428 16.196 0.98 15.3L1.288 14.796C1.988 14.992 3.78 15.076 4.788 15.076C11.536 15.16 17.192 14.348 19.936 13.648V3.904C19.908 2.448 19.404 1.86 17.5 1.384L17.752 0.543999C19.572 0.515999 22.512 1.048 23.38 1.58C23.464 1.636 23.52 1.692 23.492 1.832C23.352 2.616 23.324 3.708 23.324 4.352L23.268 21.348C23.156 23.476 22.54 25.156 21.84 25.94C21.532 26.136 20.916 26.22 20.608 26.192C20.3 25.548 19.964 23.42 19.964 21.544ZM2.884 5.024L3.248 4.604C3.948 4.8 5.348 4.912 6.972 4.912C9.632 4.912 14.616 4.8 17.36 4.38C17.472 4.352 17.584 4.408 17.584 4.548L17.528 6.228C17.528 6.368 17.5 6.424 17.36 6.424C15.708 6.368 14.028 6.34 12.348 6.34C12.152 7.32 11.76 8.216 11.2 9C13.692 8.888 17.5 9.336 17.5 11.156C17.5 11.968 17.08 12.668 16.212 12.696C14.84 11.772 13.02 10.624 10.808 9.532C8.876 11.884 5.572 13.228 3.164 13.452L2.744 12.892C4.928 11.66 8.008 9.56 8.652 6.396C7.224 6.48 5.936 6.62 5.292 6.872C4.62 6.704 3.276 5.836 2.884 5.024ZM6.384 1.244L6.692 0.767999C8.568 1.328 12.208 1.524 14.364 1.328C14.56 1.356 14.7 1.636 14.7 2C14.7 3.12 13.44 3.652 11.76 3.624C9.464 3.568 7.532 2.644 6.384 1.244ZM45.876 11.156L45.848 8.72C45.456 8.72 45.092 8.748 44.756 8.776C43.748 8.86 43.3 9.028 42.908 9.168C42.572 9.084 42.18 8.888 41.844 8.608C41.508 11.52 38.848 13.396 35.236 13.396C31.54 13.396 28.572 11.296 28.572 7.992C28.572 4.688 31.316 2.588 35.236 2.588C38.82 2.588 41.368 4.408 41.788 7.152C42.544 7.264 43.552 7.264 44.42 7.236C44.924 7.236 45.4 7.208 45.848 7.18V3.904C45.82 2.448 45.372 1.86 43.468 1.384L43.72 0.543999C45.54 0.487999 48.424 0.992 49.292 1.524C49.376 1.58 49.432 1.636 49.404 1.776C49.264 2.56 49.236 3.652 49.236 4.296L49.18 11.1C49.068 12.5 48.452 13.9 47.836 14.46C47.528 14.628 46.772 14.684 46.464 14.656C46.156 14.012 45.876 12.696 45.876 11.156ZM43.664 16.028C44.532 15.972 45.316 15.888 45.624 15.692C46.38 15.552 48.256 15.608 48.928 15.748C49.04 15.776 49.096 15.832 49.068 15.972L48.76 18.408C48.648 19.024 48.396 19.584 48.088 20.004C48.312 20.004 48.48 19.976 48.648 19.948C48.816 19.92 48.872 19.976 48.872 20.116L48.816 21.46C48.816 21.544 48.76 21.628 48.62 21.628C46.1 21.628 41.48 21.684 38.12 21.712V23.588C38.12 24.288 38.26 24.484 38.764 24.484C40.612 24.512 43.776 24.484 46.464 24.316C47.696 24.232 48.872 24.12 49.852 23.98C49.992 23.952 50.132 23.98 50.132 24.148L50.076 25.8C50.076 25.94 50.02 25.996 49.88 25.996C48.368 25.996 47.808 25.968 46.184 25.996L36.608 26.08C35.348 25.996 34.704 24.848 34.704 23.952V22.356C34.704 21.432 34.508 20.984 33.164 20.704L33.276 20.004C34.2 19.976 36.496 20.088 37.56 20.228C39.52 20.256 42.852 20.228 45.456 20.144V17.708C45.456 17.512 45.4 17.484 45.232 17.484C42.852 17.54 40.472 17.568 38.092 17.652C37.196 17.68 36.496 17.736 35.712 17.988C35.096 17.82 33.976 16.952 33.64 16.196L33.976 15.776C34.788 15.972 36.104 16.084 37.448 16.112C39.184 16.14 42.348 16.112 43.664 16.028ZM35.236 4.072C33.164 4.072 31.988 5.444 31.988 7.992C31.988 10.344 33.052 11.94 35.236 11.94C37.28 11.94 38.456 10.596 38.456 7.992C38.456 5.808 37.532 4.072 35.236 4.072ZM71.9073 11.38L71.8793 8.72C71.4873 8.72 71.1233 8.748 70.7873 8.776C69.7793 8.86 69.3313 9.028 68.9393 9.168C68.6033 9.084 68.2113 8.86 67.8473 8.58C67.6233 11.716 64.9353 13.62 61.2673 13.62C57.5993 13.62 54.6033 11.548 54.6033 8.132C54.6033 4.716 57.3753 2.644 61.2673 2.644C64.7953 2.644 67.3153 4.38 67.7913 7.152C68.5193 7.264 69.5833 7.264 70.4513 7.236C70.9553 7.236 71.4313 7.208 71.8793 7.18V3.904C71.8513 2.448 71.4033 1.86 69.4993 1.384L69.7513 0.543999C71.5713 0.487999 74.4553 0.992 75.3233 1.524C75.4073 1.58 75.4633 1.636 75.4353 1.776C75.2953 2.56 75.2673 3.652 75.2673 4.296L75.2113 11.324C75.0993 12.724 74.5113 14.04 73.8393 14.684C73.5313 14.852 72.8033 14.908 72.4953 14.88C72.1873 14.236 71.9073 12.92 71.9073 11.38ZM60.7073 23.924L60.6513 19.752C60.5953 18.044 60.6793 17.652 58.9713 17.12L59.1953 16.336C60.7353 16.28 63.0593 16.672 63.9553 17.12C64.0393 17.176 64.0953 17.232 64.0673 17.4C64.0113 17.932 63.9833 18.716 63.9833 19.416C66.0833 19.416 69.0513 19.36 71.5993 19.304V18.576C71.5993 17.176 71.5713 16.756 70.0313 16.28L70.2553 15.496C71.8233 15.468 73.8673 15.748 74.9313 16.28C75.0153 16.336 75.0713 16.392 75.0433 16.532C74.9313 17.316 74.9313 18.212 74.9313 18.856V21.712C74.8753 22.776 74.6233 23.616 74.2313 24.232C74.4553 24.232 74.6793 24.204 74.8753 24.204C75.0433 24.204 75.1273 24.26 75.1273 24.4L75.0993 25.716C75.0993 25.884 75.0153 25.94 74.8753 25.94C71.9913 25.94 66.5033 25.94 63.3953 25.996C63.1433 26.416 62.8913 26.752 62.6393 26.948C62.3873 27.06 61.5753 27.172 61.3233 27.116C61.0433 26.5 60.7353 25.296 60.7073 23.924ZM61.2673 4.1C59.2793 4.1 57.9633 5.444 57.9633 8.132C57.9633 10.624 59.1673 12.192 61.2673 12.192C63.2273 12.192 64.5433 10.876 64.5433 8.132C64.5433 5.808 63.4793 4.1 61.2673 4.1ZM71.5993 20.9C68.9393 20.9 66.0553 20.928 63.9833 20.956V24.4C66.1113 24.4 69.0233 24.372 71.5993 24.316V20.9Z"/>
</svg>
