<svg width="26" height="18" viewBox="0 0 26 18" fill="none" xmlns="http://www.w3.org/2000/svg">
<path d="M0.869318 2.31534V0.909091H10.6875V2.31534H6.57102V14H4.9858V2.31534H0.869318ZM12.9295 14V4.18182H14.438V14H12.9295ZM13.6966 2.54545C13.4025 2.54545 13.149 2.44531 12.9359 2.24503C12.7271 2.04474 12.6227 1.80398 12.6227 1.52273C12.6227 1.24148 12.7271 1.00071 12.9359 0.800426C13.149 0.600142 13.4025 0.5 13.6966 0.5C13.9906 0.5 14.242 0.600142 14.4508 0.800426C14.6639 1.00071 14.7704 1.24148 14.7704 1.52273C14.7704 1.80398 14.6639 2.04474 14.4508 2.24503C14.242 2.44531 13.9906 2.54545 13.6966 2.54545ZM17.201 17.6818V4.18182H18.6584V5.74148H18.8374C18.9482 5.57102 19.1016 5.35369 19.2976 5.08949C19.4979 4.82102 19.7834 4.58239 20.1541 4.37358C20.5291 4.16051 21.0362 4.05398 21.6754 4.05398C22.5021 4.05398 23.2308 4.26065 23.8615 4.67401C24.4922 5.08736 24.9844 5.6733 25.3381 6.43182C25.6918 7.19034 25.8686 8.08523 25.8686 9.11648C25.8686 10.1562 25.6918 11.0575 25.3381 11.8203C24.9844 12.5788 24.4943 13.1669 23.8679 13.5845C23.2415 13.9979 22.5192 14.2045 21.701 14.2045C21.0703 14.2045 20.5653 14.1001 20.1861 13.8913C19.8068 13.6783 19.5149 13.4375 19.3104 13.169C19.1058 12.8963 18.9482 12.6705 18.8374 12.4915H18.7095V17.6818H17.201ZM18.6839 9.09091C18.6839 9.83239 18.7926 10.4865 19.0099 11.0533C19.2273 11.6158 19.5447 12.0568 19.9624 12.3764C20.38 12.6918 20.8913 12.8494 21.4964 12.8494C22.1271 12.8494 22.6534 12.6832 23.0753 12.3509C23.5014 12.0142 23.821 11.5625 24.0341 10.9957C24.2514 10.4247 24.3601 9.78977 24.3601 9.09091C24.3601 8.40057 24.2536 7.77841 24.0405 7.22443C23.8317 6.66619 23.5142 6.22514 23.0881 5.90128C22.6662 5.57315 22.1357 5.40909 21.4964 5.40909C20.8828 5.40909 20.3672 5.56463 19.9496 5.87571C19.532 6.18253 19.2166 6.61293 19.0036 7.1669C18.7905 7.71662 18.6839 8.35795 18.6839 9.09091Z"/>
</svg>


